HIERARCHY
ROOT mixamorig:Hips
{
	OFFSET 0.000000 201.639420 0.000000
	CHANNELS 6 Xposition Yposition Zposition Xrotation Yrotation Zrotation
	JOINT mixamorig:Spine
	{
		OFFSET 0.006200 19.524994 -2.481800
		CHANNELS 3 Xrotation Yrotation Zrotation
		JOINT mixamorig:Spine1
		{
			OFFSET -0.000900 22.835007 -2.825400
			CHANNELS 3 Xrotation Yrotation Zrotation
			JOINT mixamorig:Spine2
			{
				OFFSET -0.020600 26.552490 -3.193300
				CHANNELS 3 Xrotation Yrotation Zrotation
				JOINT mixamorig:Neck
				{
					OFFSET -0.060000 30.701813 1.352200
					CHANNELS 3 Xrotation Yrotation Zrotation
					JOINT mixamorig:Head
					{
						OFFSET -0.087200 22.547607 3.670900
						CHANNELS 3 Xrotation Yrotation Zrotation
						JOINT mixamorig:HeadTop_End
						{
							OFFSET -0.830600 40.355194 7.893500
							CHANNELS 3 Xrotation Yrotation Zrotation
							End Site
							{
								OFFSET 0.000000 30.592346 0.000000
							}
						}
						JOINT mixamorig:RightEye
						{
							OFFSET -6.302100 18.118591 16.197100
							CHANNELS 3 Xrotation Yrotation Zrotation
							End Site
							{
								OFFSET 0.000000 30.592346 0.000000
							}
						}
						JOINT mixamorig:LeftEye
						{
							OFFSET 6.741500 18.382690 16.401899
							CHANNELS 3 Xrotation Yrotation Zrotation
							End Site
							{
								OFFSET 0.000000 30.592346 0.000000
							}
						}
					}
				}
				JOINT mixamorig:LeftShoulder
				{
					OFFSET 11.924900 18.230499 1.425400
					CHANNELS 3 Xrotation Yrotation Zrotation
					JOINT mixamorig:LeftArm
					{
						OFFSET 25.435989 -0.697632 -5.229300
						CHANNELS 3 Xrotation Yrotation Zrotation
						JOINT mixamorig:LeftForeArm
						{
							OFFSET 54.684776 0.000000 0.000000
							CHANNELS 3 Xrotation Yrotation Zrotation
							JOINT mixamorig:LeftHand
							{
								OFFSET 55.098175 0.000000 0.000000
								CHANNELS 3 Xrotation Yrotation Zrotation
								JOINT mixamorig:LeftHandMiddle1
								{
									OFFSET 23.369751 0.000000 0.000000
									CHANNELS 3 Xrotation Yrotation Zrotation
									JOINT mixamorig:LeftHandMiddle2
									{
										OFFSET 6.378677 0.000000 0.000000
										CHANNELS 3 Xrotation Yrotation Zrotation
										JOINT mixamorig:LeftHandMiddle3
										{
											OFFSET 6.148331 0.000000 0.000000
											CHANNELS 3 Xrotation Yrotation Zrotation
											JOINT mixamorig:LeftHandMiddle4
											{
												OFFSET 6.582504 0.000000 0.000000
												CHANNELS 3 Xrotation Yrotation Zrotation
												End Site
												{
													OFFSET -1.168900 6.395691 1.028606
												}
											}
										}
									}
								}
								JOINT mixamorig:LeftHandThumb1
								{
									OFFSET 7.235672 -3.848206 5.434273
									CHANNELS 3 Xrotation Yrotation Zrotation
									JOINT mixamorig:LeftHandThumb2
									{
										OFFSET 6.568451 -3.792297 3.792300
										CHANNELS 3 Xrotation Yrotation Zrotation
										JOINT mixamorig:LeftHandThumb3
										{
											OFFSET 6.063080 -3.500519 3.500518
											CHANNELS 3 Xrotation Yrotation Zrotation
											JOINT mixamorig:LeftHandThumb4
											{
												OFFSET 4.793182 -2.767334 2.767349
												CHANNELS 3 Xrotation Yrotation Zrotation
												End Site
												{
													OFFSET 0.101639 6.054260 1.275483
												}
											}
										}
									}
								}
								JOINT mixamorig:LeftHandIndex1
								{
									OFFSET 23.101074 -0.309540 4.992809
									CHANNELS 3 Xrotation Yrotation Zrotation
									JOINT mixamorig:LeftHandIndex2
									{
										OFFSET 6.226883 0.000000 0.000000
										CHANNELS 3 Xrotation Yrotation Zrotation
										JOINT mixamorig:LeftHandIndex3
										{
											OFFSET 6.094330 0.000000 0.000000
											CHANNELS 3 Xrotation Yrotation Zrotation
											JOINT mixamorig:LeftHandIndex4
											{
												OFFSET 5.482605 0.000000 0.000000
												CHANNELS 3 Xrotation Yrotation Zrotation
												End Site
												{
													OFFSET -1.427902 5.233032 0.797164
												}
											}
										}
									}
								}
								JOINT mixamorig:LeftHandRing1
								{
									OFFSET 22.299240 0.021149 -3.964172
									CHANNELS 3 Xrotation Yrotation Zrotation
									JOINT mixamorig:LeftHandRing2
									{
										OFFSET 6.321869 0.000000 0.000000
										CHANNELS 3 Xrotation Yrotation Zrotation
										JOINT mixamorig:LeftHandRing3
										{
											OFFSET 5.899796 0.000000 0.000000
											CHANNELS 3 Xrotation Yrotation Zrotation
											JOINT mixamorig:LeftHandRing4
											{
												OFFSET 6.517899 0.000000 0.000000
												CHANNELS 3 Xrotation Yrotation Zrotation
												End Site
												{
													OFFSET -1.637299 6.232208 0.980890
												}
											}
										}
									}
								}
								JOINT mixamorig:LeftHandPinky1
								{
									OFFSET 20.463791 -0.302338 -8.562233
									CHANNELS 3 Xrotation Yrotation Zrotation
									JOINT mixamorig:LeftHandPinky2
									{
										OFFSET 6.908646 0.000000 0.000000
										CHANNELS 3 Xrotation Yrotation Zrotation
										JOINT mixamorig:LeftHandPinky3
										{
											OFFSET 4.622849 0.000000 0.000000
											CHANNELS 3 Xrotation Yrotation Zrotation
											JOINT mixamorig:LeftHandPinky4
											{
												OFFSET 5.216080 0.000000 0.000000
												CHANNELS 3 Xrotation Yrotation Zrotation
												End Site
												{
													OFFSET -0.606308 5.116241 0.814926
												}
											}
										}
									}
								}
							}
						}
					}
				}
				JOINT mixamorig:RightShoulder
				{
					OFFSET -12.001300 18.284088 1.348900
					CHANNELS 3 Xrotation Yrotation Zrotation
					JOINT mixamorig:RightArm
					{
						OFFSET -25.308500 -0.751312 -5.164599
						CHANNELS 3 Xrotation Yrotation Zrotation
						JOINT mixamorig:RightForeArm
						{
							OFFSET -54.684429 0.000000 0.000000
							CHANNELS 3 Xrotation Yrotation Zrotation
							JOINT mixamorig:RightHand
							{
								OFFSET -55.150291 0.000000 0.000000
								CHANNELS 3 Xrotation Yrotation Zrotation
								JOINT mixamorig:RightHandMiddle1
								{
									OFFSET -23.317566 0.000000 0.000000
									CHANNELS 3 Xrotation Yrotation Zrotation
									JOINT mixamorig:RightHandMiddle2
									{
										OFFSET -6.378403 0.000000 0.000000
										CHANNELS 3 Xrotation Yrotation Zrotation
										JOINT mixamorig:RightHandMiddle3
										{
											OFFSET -6.148193 0.000000 0.000000
											CHANNELS 3 Xrotation Yrotation Zrotation
											JOINT mixamorig:RightHandMiddle4
											{
												OFFSET -6.583389 0.000000 0.000000
												CHANNELS 3 Xrotation Yrotation Zrotation
												End Site
												{
													OFFSET 1.171692 6.395905 1.029786
												}
											}
										}
									}
								}
								JOINT mixamorig:RightHandThumb1
								{
									OFFSET -7.190521 -3.860474 5.435846
									CHANNELS 3 Xrotation Yrotation Zrotation
									JOINT mixamorig:RightHandThumb2
									{
										OFFSET -6.567429 -3.791718 3.791708
										CHANNELS 3 Xrotation Yrotation Zrotation
										JOINT mixamorig:RightHandThumb3
										{
											OFFSET -6.062469 -3.500153 3.500166
											CHANNELS 3 Xrotation Yrotation Zrotation
											JOINT mixamorig:RightHandThumb4
											{
												OFFSET -4.792618 -2.767029 2.767022
												CHANNELS 3 Xrotation Yrotation Zrotation
												End Site
												{
													OFFSET -0.100327 6.053253 1.276754
												}
											}
										}
									}
								}
								JOINT mixamorig:RightHandIndex1
								{
									OFFSET -23.048981 -0.310791 4.992554
									CHANNELS 3 Xrotation Yrotation Zrotation
									JOINT mixamorig:RightHandIndex2
									{
										OFFSET -6.227539 0.000000 0.000000
										CHANNELS 3 Xrotation Yrotation Zrotation
										JOINT mixamorig:RightHandIndex3
										{
											OFFSET -6.095047 0.000000 0.000000
											CHANNELS 3 Xrotation Yrotation Zrotation
											JOINT mixamorig:RightHandIndex4
											{
												OFFSET -5.484772 0.000000 0.000000
												CHANNELS 3 Xrotation Yrotation Zrotation
												End Site
												{
													OFFSET 1.420593 5.237305 0.797056
												}
											}
										}
									}
								}
								JOINT mixamorig:RightHandRing1
								{
									OFFSET -22.246323 0.020569 -3.963762
									CHANNELS 3 Xrotation Yrotation Zrotation
									JOINT mixamorig:RightHandRing2
									{
										OFFSET -6.322128 0.000000 0.000000
										CHANNELS 3 Xrotation Yrotation Zrotation
										JOINT mixamorig:RightHandRing3
										{
											OFFSET -5.900024 0.000000 0.000000
											CHANNELS 3 Xrotation Yrotation Zrotation
											JOINT mixamorig:RightHandRing4
											{
												OFFSET -6.518356 0.000000 0.000000
												CHANNELS 3 Xrotation Yrotation Zrotation
												End Site
												{
													OFFSET 1.636398 6.232697 0.982186
												}
											}
										}
									}
								}
								JOINT mixamorig:RightHandPinky1
								{
									OFFSET -20.411011 -0.303314 -8.561701
									CHANNELS 3 Xrotation Yrotation Zrotation
									JOINT mixamorig:RightHandPinky2
									{
										OFFSET -6.907349 0.000000 0.000000
										CHANNELS 3 Xrotation Yrotation Zrotation
										JOINT mixamorig:RightHandPinky3
										{
											OFFSET -4.623840 0.000000 0.000000
											CHANNELS 3 Xrotation Yrotation Zrotation
											JOINT mixamorig:RightHandPinky4
											{
												OFFSET -5.218353 0.000000 0.000000
												CHANNELS 3 Xrotation Yrotation Zrotation
												End Site
												{
													OFFSET 0.602097 5.118835 0.816273
												}
											}
										}
									}
								}
							}
						}
					}
				}
			}
		}
	}
	JOINT mixamorig:LeftUpLeg
	{
		OFFSET 18.168400 -13.561905 -0.039000
		CHANNELS 3 Xrotation Yrotation Zrotation
		JOINT mixamorig:LeftLeg
		{
			OFFSET 0.577358 -80.825211 -3.695000
			CHANNELS 3 Xrotation Yrotation Zrotation
			JOINT mixamorig:LeftFoot
			{
				OFFSET -0.577356 -83.370262 -6.520700
				CHANNELS 3 Xrotation Yrotation Zrotation
				JOINT mixamorig:LeftToeBase
				{
					OFFSET 0.750401 -20.798306 25.135401
					CHANNELS 3 Xrotation Yrotation Zrotation
					JOINT mixamorig:LeftToe_End
					{
						OFFSET -0.000500 0.001200 19.917799
						CHANNELS 3 Xrotation Yrotation Zrotation
						End Site
						{
							OFFSET 0.000000 19.917805 0.000000
						}
					}
				}
			}
		}
	}
	JOINT mixamorig:RightUpLeg
	{
		OFFSET -18.162500 -13.585098 -0.041000
		CHANNELS 3 Xrotation Yrotation Zrotation
		JOINT mixamorig:RightLeg
		{
			OFFSET -0.595024 -80.945297 -3.631900
			CHANNELS 3 Xrotation Yrotation Zrotation
			JOINT mixamorig:RightFoot
			{
				OFFSET 0.595024 -83.218193 -6.561200
				CHANNELS 3 Xrotation Yrotation Zrotation
				JOINT mixamorig:RightToeBase
				{
					OFFSET -0.753601 -20.807106 25.115000
					CHANNELS 3 Xrotation Yrotation Zrotation
					JOINT mixamorig:RightToe_End
					{
						OFFSET 0.000299 0.001700 19.918200
						CHANNELS 3 Xrotation Yrotation Zrotation
						End Site
						{
							OFFSET 0.000000 19.918203 0.000000
						}
					}
				}
			}
		}
	}
}
MOTION
Frames: 4
Frame Time: 0.033333
0.374572 200.312607 -0.375375 -3.753456 -5.224849 -3.507160 3.303689 1.534728 2.479810 1.151890 0.339457 1.552798 1.126015 0.361543 1.555886 5.626309 -0.078963 0.454683 -7.563345 1.375724 -0.080566 -0.000000 -0.000000 0.000000 -0.000000 -0.000000 0.000000 -0.000000 -0.000000 0.000000 1.049449 -17.442070 -12.319430 3.916257 -19.989266 -69.765219 -0.000003 -1.459366 -0.000010 -33.230414 -1.364821 -6.186622 -0.076312 2.665773 -15.696837 0.268779 1.755800 -17.405547 0.300526 1.853981 -18.413331 -0.000002 -0.000000 -0.000004 -0.663006 2.160312 4.832513 11.853539 25.421633 17.058315 -13.813947 3.537276 9.036019 0.000000 0.000003 0.000003 0.019866 -0.969583 -7.593542 0.267874 1.752891 -17.375725 0.057679 0.820954 -8.038017 -0.000001 -0.000000 0.000000 0.136910 3.641777 -21.133524 0.386620 2.094790 -20.911910 0.283040 1.800633 -17.864997 -0.000001 -0.000001 0.000002 0.927728 5.555915 -27.128055 0.268790 1.755841 -17.405882 0.241905 1.667704 -16.505890 0.000000 -0.000000 0.000004 1.203181 15.343660 14.705968 13.158861 27.555116 58.785136 0.000002 6.693751 0.000023 -20.179082 -0.514097 6.782784 -0.136228 -2.205103 14.998891 0.214442 -1.398354 17.436868 0.239776 -1.476531 18.446266 0.000000 0.000002 0.000000 -1.665249 -0.174478 -4.219026 12.710945 -29.825339 -16.130955 -15.549423 -3.559393 -12.707116 -0.000005 -0.000000 -0.000001 0.038548 1.262295 6.823722 0.213720 -1.396021 17.407031 0.046031 -0.653855 8.053204 -0.000000 0.000001 0.000000 0.030609 -3.075770 20.451002 0.308451 -1.668273 20.948549 0.225821 -1.434045 17.897092 -0.000001 -0.000001 0.000004 0.748881 -4.885240 26.473776 0.214456 -1.398375 17.437248 0.193009 -1.328177 16.535827 -0.000003 0.000002 -0.000001 -13.008421 14.262758 10.836331 13.096333 2.098449 4.210344 2.619593 0.419505 -7.303446 -4.928528 0.000007 -0.000002 0.000000 0.000000 0.000000 -0.243978 -10.396286 3.110964 6.110688 -9.762777 -3.279713 -1.645244 -1.557836 2.850911 -7.282878 -0.000007 -0.000001 -0.000001 0.000002 -0.000000 
0.382680 200.295700 -0.363668 -3.740892 -5.243059 -3.500552 3.298029 1.537486 2.478279 1.148911 0.344143 1.556954 1.123079 0.366218 1.559963 5.650849 -0.087723 0.464310 -7.522195 1.337937 -0.085232 0.000000 0.000000 0.000000 0.000000 0.000000 0.000000 0.000000 0.000000 0.000000 1.050034 -17.411947 -12.306707 3.927145 -19.991658 -69.780375 0.000002 -1.427328 0.000004 -33.209555 -1.371130 -6.178190 -0.073161 2.673924 -15.660135 0.268766 1.755745 -17.404992 0.300509 1.853927 -18.412802 0.000001 -0.000001 0.000000 -0.656604 2.174317 4.820771 11.861216 25.436284 17.053874 -13.814589 3.535497 9.035866 0.000001 -0.000000 0.000001 0.022861 -0.966248 -7.600570 0.268066 1.753523 -17.382171 0.057770 0.821606 -8.044458 -0.000002 0.000000 0.000001 0.136283 3.639622 -21.121240 0.386282 2.093893 -20.902498 0.282746 1.799721 -17.855726 0.000001 0.000000 -0.000001 0.931671 5.565046 -27.105640 0.268598 1.755223 -17.399540 0.241694 1.666988 -16.498646 -0.000001 -0.000002 0.000006 1.208391 15.326847 14.680612 13.082100 27.482111 58.704144 -0.000009 6.663274 0.000007 -20.215794 -0.544937 6.784484 -0.089119 -2.358954 14.705589 0.214433 -1.398344 17.436713 0.239794 -1.476598 18.447279 0.000001 -0.000001 0.000006 -1.700468 -0.172799 -3.884541 12.719990 -29.830868 -16.126961 -15.564668 -3.523597 -12.695541 -0.000002 0.000003 0.000003 0.079638 1.301102 6.247117 0.212653 -1.392577 17.362628 0.045530 -0.650335 8.009673 0.000006 -0.000000 -0.000001 0.079452 -3.213167 20.617478 0.310070 -1.672526 21.004392 0.227199 -1.438300 17.952056 -0.000002 0.000002 0.000003 0.706494 -4.820412 27.200755 0.231633 -1.451919 18.127988 0.209336 -1.381965 17.226166 -0.000001 0.000000 -0.000003 -13.046574 14.254717 10.830219 13.166060 2.127326 4.219683 2.555744 0.424773 -7.301853 -4.936958 0.000001 -0.000000 0.000000 0.000000 0.000000 -0.362776 -10.398829 3.063548 6.303004 -9.784979 -3.257994 -1.729378 -1.553948 2.866471 -7.287799 -0.000005 -0.000000 -0.000001 -0.000002 0.000000 
0.390491 200.254669 -0.339816 -3.731686 -5.293981 -3.500841 3.293296 1.538096 2.476989 1.146016 0.345093 1.564492 1.120205 0.367103 1.567407 5.672559 -0.094036 0.465333 -7.484403 1.309461 -0.096835 0.000000 -0.000000 -0.000000 0.000000 -0.000000 -0.000000 0.000000 -0.000000 -0.000000 1.049710 -17.385543 -12.302374 3.968617 -19.994933 -69.782643 -0.000006 -1.399245 0.000006 -33.190577 -1.363222 -6.184615 -0.070167 2.683862 -15.650590 0.268785 1.755822 -17.405745 0.300539 1.854002 -18.413560 -0.000000 0.000001 -0.000000 -0.646978 2.195646 4.800525 11.867920 25.449080 17.049991 -13.814374 3.536075 9.035895 -0.000001 0.000000 0.000000 0.029899 -0.962150 -7.591632 0.268034 1.753426 -17.381228 0.057761 0.821508 -8.043501 0.000001 0.000001 0.000001 0.136014 3.638316 -21.106908 0.385935 2.092978 -20.892932 0.282446 1.798789 -17.846127 -0.000001 -0.000001 0.000001 0.934043 5.570695 -27.090417 0.268155 1.753802 -17.385056 0.241260 1.665512 -16.483528 -0.000002 -0.000000 0.000001 1.214729 15.312323 14.649868 12.874071 27.279385 58.777876 -0.000006 6.598376 -0.000008 -20.117590 -0.534584 6.753658 -0.020754 -2.583721 14.099884 0.215842 -1.402786 17.494017 0.241369 -1.481303 18.508165 0.000004 -0.000002 0.000004 -1.795278 -0.048462 -3.679359 12.406529 -29.279587 -16.211956 -15.533090 -3.587373 -12.716362 0.000002 0.000000 0.000001 0.172127 1.438278 4.833689 0.212817 -1.393115 17.369651 0.045636 -0.651105 8.019184 0.000002 -0.000001 -0.000001 0.097881 -3.277685 21.058170 0.348788 -1.770008 22.293135 0.260649 -1.537693 19.240330 0.000000 -0.000000 0.000002 0.784753 -4.939157 28.810387 0.295291 -1.633538 20.492173 0.270127 -1.564561 19.590161 0.000002 0.000002 0.000001 -13.143898 14.236879 10.845943 13.371607 2.186787 4.238952 2.415910 0.433504 -7.312830 -4.947368 0.000003 0.000002 0.000000 0.000000 0.000000 -0.582443 -10.408075 2.983996 6.706220 -9.773377 -3.198072 -1.916525 -1.550965 2.878161 -7.290737 0.000000 -0.000001 -0.000001 -0.000002 0.000000 
0.393958 200.190308 -0.297867 -3.719581 -5.393764 -3.521329 3.287691 1.538245 2.480414 1.139930 0.344806 1.578675 1.114108 0.366635 1.581525 5.682863 -0.099311 0.464116 -7.427067 1.286020 -0.107582 0.000000 -0.000000 -0.000000 0.000000 -0.000000 -0.000000 0.000000 -0.000000 -0.000000 1.045649 -17.338422 -12.323209 4.069967 -20.044319 -69.737024 0.000001 -1.405430 -0.000007 -33.163806 -1.327162 -6.207143 -0.067219 2.696122 -15.670124 0.268865 1.756065 -17.408178 0.300616 1.854237 -18.416034 -0.000000 0.000002 0.000002 -0.631499 2.228543 4.779220 11.878970 25.470151 17.043617 -13.816240 3.530946 9.035486 0.000000 0.000003 -0.000001 0.042767 -0.952403 -7.590861 0.268187 1.753890 -17.385997 0.057825 0.821991 -8.048250 -0.000001 -0.000000 0.000000 0.136481 3.639075 -21.096404 0.385590 2.092091 -20.883611 0.282151 1.797865 -17.836674 0.000001 0.000000 0.000007 0.934411 5.571894 -27.097722 0.267525 1.751791 -17.364433 0.240660 1.663474 -16.462860 -0.000001 0.000000 0.000001 1.221124 15.334934 14.620428 12.741642 26.957903 58.856300 0.000008 6.750932 0.000008 -20.062004 -0.390802 6.644844 0.047086 -2.813511 13.114766 0.219997 -1.415913 17.663067 0.245920 -1.494836 18.683542 0.000001 0.000000 0.000004 -1.903746 0.131873 -3.662658 11.624582 -27.809206 -16.402844 -15.436998 -3.790128 -12.782326 -0.000001 0.000001 -0.000004 0.345722 1.721053 2.204489 0.215385 -1.401341 17.475592 0.046892 -0.659964 8.129058 0.000004 -0.000001 -0.000002 0.069226 -3.218234 21.441859 0.416374 -1.926580 24.388656 0.319823 -1.697681 21.335979 -0.000000 0.000001 0.000001 0.969007 -5.197716 30.524901 0.395501 -1.879878 23.760223 0.366447 -1.812474 22.858247 -0.000002 0.000003 0.000001 -13.306509 14.216301 10.899718 13.711772 2.283547 4.270691 2.191137 0.445253 -7.330712 -4.959093 0.000003 0.000002 -0.000000 -0.000001 0.000000 -0.874099 -10.408793 2.893866 7.256618 -9.719283 -3.099317 -2.176744 -1.551074 2.878053 -7.299775 0.000007 0.000001 -0.000001 -0.000002 -0.000000 
